<svg xmlns="http://www.w3.org/2000/svg" xml:space="preserve" version="1.1" style="shape-rendering:geometricPrecision; text-rendering:geometricPrecision; image-rendering:optimizeQuality; fill-rule:evenodd; clip-rule:evenodd"
viewBox="0 0 512 512"
 xmlns:xlink="http://www.w3.org/1999/xlink">
  <path class="fil0 str0" d="M271.902 229.55l180.733 -199.926c2.311,-2.556 6.151,-4.798 9.596,-4.798 7.997,0 26.128,12.029 29.858,14.811 3.73,2.783 2.501,10.31 0.531,12.379l-193.601 203.289 195.2 202.961 -212.877 -184.399 -204.569 214.788c-12.54,13.166 -27.682,12.718 -28.789,-3.199l-30.389 -436.639c-2.451,-35.228 42.989,-44.672 62.377,-23.991l191.93 204.724zm-16.355 19.441l-177.086 -161.15c-13.95,-11.685 -19.402,-6.606 -17.593,12.796l14.306 341.635c0.285,6.808 5.182,1.715 9.596,-3.199l170.777 -190.082z"/>
</svg>
